<svg id="Layer_1" data-name="Layer 1" xmlns="http://www.w3.org/2000/svg" viewBox="0 0 190.83 67.85"><defs><style>.cls-1,.cls-2{fill:none;stroke-miterlimit:10;stroke-width:4px;}.cls-1{stroke:#17bebb;}.cls-2{stroke:#fff;}.cls-3{font-size:40px;fill:#fff;font-family:UrbaneRounded-Medium, Urbane Rounded;font-weight:500;}.cls-4{letter-spacing:-0.02em;}</style></defs><title>pylar</title><path class="cls-1" d="M90,199.69H67.6a4.87,4.87,0,0,0-3.47,1.44L48.3,217a4.91,4.91,0,0,0-1.44,3.47V242.8a4.92,4.92,0,0,0,1.44,3.48L64.13,262.1a4.91,4.91,0,0,0,3.47,1.44H90a4.91,4.91,0,0,0,3.47-1.44l15.83-15.82a4.92,4.92,0,0,0,1.44-3.48V220.42a4.91,4.91,0,0,0-1.44-3.47L93.45,201.13A4.87,4.87,0,0,0,90,199.69Z" transform="translate(-44.86 -197.69)"/><path class="cls-2" d="M56.68,220.61c4.42,0,4.42,22,8.83,22s4.42-22,8.84-22,4.42,22,8.83,22,4.42-22,8.84-22,4.42,22,8.84,22" transform="translate(-44.86 -197.69)"/><text class="cls-3" transform="translate(86.03 45.09)"><tspan class="cls-4">p</tspan><tspan x="26.92" y="0">ylar</tspan></text></svg>