<svg id="logo" xmlns="http://www.w3.org/2000/svg" viewBox="0 0 324.24 324.24"><defs><style>.cls-1{fill:#fff;}</style></defs><title>svg-transparent</title><path class="cls-1" d="M466.93,390,424,286.43a15.56,15.56,0,0,0-8.45-8.45L312,235.07a15.59,15.59,0,0,0-12,0L196.43,278a15.56,15.56,0,0,0-8.45,8.45L145.07,390a15.59,15.59,0,0,0,0,12L188,505.57a15.56,15.56,0,0,0,8.45,8.45L300,556.93a15.59,15.59,0,0,0,12,0L415.57,514a15.56,15.56,0,0,0,8.45-8.45L466.93,402A15.59,15.59,0,0,0,466.93,390Zm-11.35,12L416,497.55a15.69,15.69,0,0,1-8.45,8.45L312,545.58a15.59,15.59,0,0,1-12,0L204.45,506a15.69,15.69,0,0,1-8.45-8.45L156.42,402a15.59,15.59,0,0,1,0-12L196,294.45a15.69,15.69,0,0,1,8.45-8.45L300,246.42a15.59,15.59,0,0,1,12,0L407.55,286a15.69,15.69,0,0,1,8.45,8.45L455.58,390A15.59,15.59,0,0,1,455.58,402Z" transform="translate(-143.88 -233.88)"/><path class="cls-1" d="M239.21,318a4.78,4.78,0,1,0-4.78,4.78A4.78,4.78,0,0,0,239.21,318Z" transform="translate(-143.88 -233.88)"/><path class="cls-1" d="M259.36,301.63a4.78,4.78,0,1,0-4.78,4.78A4.79,4.79,0,0,0,259.36,301.63Z" transform="translate(-143.88 -233.88)"/><path class="cls-1" d="M184.45,388.3a4.78,4.78,0,1,0,4.78-4.78A4.78,4.78,0,0,0,184.45,388.3Z" transform="translate(-143.88 -233.88)"/><path class="cls-1" d="M222.66,405.13a4.78,4.78,0,1,0,4.78,4.78A4.79,4.79,0,0,0,222.66,405.13Z" transform="translate(-143.88 -233.88)"/><path class="cls-1" d="M231.75,465.28a4.78,4.78,0,1,0,4.77-4.78A4.78,4.78,0,0,0,231.75,465.28Z" transform="translate(-143.88 -233.88)"/><path class="cls-1" d="M197.26,437.4a4.78,4.78,0,1,0,4.78-4.78A4.79,4.79,0,0,0,197.26,437.4Z" transform="translate(-143.88 -233.88)"/><path class="cls-1" d="M303.12,529.17c-1.05-.2-86.21-35.34-86.21-35.34a15.62,15.62,0,0,1-8.45-8.45L174,402.27a15.57,15.57,0,0,1,0-11.95l34.42-83.11a15.62,15.62,0,0,1,8.45-8.45s85.16-35.14,86.21-35.34V377.64l-45.66-26.36V311.76a10.53,10.53,0,1,0-5.76,0V354.6l51.42,29.69v17l-65.81-38v-35.2a10.53,10.53,0,1,0-5.76,0v38.53l71.36,41.2.21-.37v16.06l-66-38.11H199.36a10.54,10.54,0,1,0,0,5.76h36.21l67.55,39v44L278,459.7V436.23l-44.84-25.89c0-.14,0-.28,0-.43a10.57,10.57,0,1,0-1.89,6l40.95,23.65v16.81l-37.85-21.85H212.17a10.54,10.54,0,1,0,0,5.76h20.7l70.25,40.56V500.4l-56.39-32.55a10.4,10.4,0,0,0,.33-2.57,10.56,10.56,0,1,0-3.21,7.56l59.27,34.22ZM438,402.27l-34.42,83.11a15.62,15.62,0,0,1-8.45,8.45S309.93,529,308.88,529.17v0h0V467.77l76.64-44.25-2.88-5-33.83,19.54V416.6h-5.76v24.79l-34.17,19.73V398l49.24-28.43H392v-5.76H368.1l25.31-14.61-2.88-5-81.65,47.14v-47.5L343.37,324l-2.88-5-31.61,18.25V263.42c1.05.2,86.21,35.34,86.21,35.34a15.62,15.62,0,0,1,8.45,8.45L438,390.32A15.57,15.57,0,0,1,438,402.27ZM333.92,305l-1.79-2.32-2.29,1.84c-2.18,1.75-5,6.8-.29,13.42l2.17,3,2.38-2.86C337.33,314.18,337.26,309.28,333.92,305Zm9.92,32.79a6.17,6.17,0,0,0,1.5-.19l3.6-.92-1.78-3.25c-1.52-2.79-4.75-3.09-6.43-2.84l-4.47.69,2.52,3.76A6.3,6.3,0,0,0,343.84,337.74Zm10.94,10.12C340.85,351.14,344,363.94,344,363.94,351.84,363.4,358.65,358.1,354.78,347.86Zm13,67.1-3-1.44c-3.21-1.56-6-1.73-8.43-.49-3.51,1.8-4.28,5.83-4.36,6.29l-.41,2.45,2.37.76a8.79,8.79,0,0,0,2.71.39,10.91,10.91,0,0,0,9.26-5.22Zm-17.51,49.31c-3.62-10.33-12.24-10-18.6-5.38C331.62,458.89,337.45,470.71,350.22,464.27Z" transform="translate(-143.88 -233.88)"/></svg>